<?xml version="1.0" encoding="UTF-8"?>
<svg version="1.1" viewBox="0 0 2000 2000" width="500" height="500" xmlns="http://www.w3.org/2000/svg">
<path transform="translate(1122,559)" d="m0 0h22l23 2 22 5 10 3 5 4v5l-14 14-9 15-4 10-4 16v48l2 8 3 19 12 44 5 18 4 18 2 23 2 9 1 10v10l-1 11-2 7-2 17-5 18-8 21-8 15-6 11-10 15-12 14-7 8-14 12-11 9-21 13-21 11-28 9-18 2-5 2-16 1h-30l-15-1-17-3-19-4-18-6-19-10-10-7-11-8-13-10-8-8-10-13-8-10-8-13-8-16-7-19-4-13-4-18-3-21-1-5v-35l3-13 2-13 5-17 7-16 7-12 8-11 8-8 5-6 7-6 3-6 1-9 7-16 9-15 13-19 5-5h12l8 7 10 13 6-1 13-7h12l4 5 4 16 2 25 15 7 12 7 12 8 1-1v-18l2-16 1-15 6-26 7-17 8-15 9-13 16-16 13-9 16-8 27-9 5-1zm3 16-13 1-20 5-15 5-13 7-15 13-9 10-7 10-5 8-8 19-4 17-3 28-1 7v33l4 6 11 9 15 10 12 6 9 3 15 2 1 1v16l-4 11-7 11-5 6-8 7-11 7-19 9-1 1v65l-1 23-2 10-4 15-8 16-7 10-4 5-10 8-16 8-10 3-9 1-21 1 1 5 7 3 34 4h39l15-3 14-2 18-4 15-6 20-10 12-8 17-13 19-19 14-19 9-15 9-19 5-15 4-17 1-25v-17l-1-31-3-17-6-26-10-36-5-23-3-16v-42l6-24 7-16 6-10 2-4v-3l-28-4zm-233 85-8 11-7 11-8 15-7 23-6 8-13 12-10 13-6 11-7 16-4 16-2 26v28l1 28 1 9 5 9h3l1-17 6-18 9-17 10-12 9-7 13-8 10-4 13-3 4-1h26l16 3 16 2 13 2h43l19-6 16-8 12-10-1-4-10-5-19-9-21-16-21-21-12-9-10-6-14-6-14-4-20-1-5-3-4-6-2-18-6-16-5-8zm42 12-10 6-4 5 1 6 3 6 1 1h15v-20l-2-4zm-41 152-16 6-9 6-13 13-7 9-8 16v46l5 16 8 15 10 14 4 4h1l1-29 6-19 8-16 10-15 16-16 19-12 16-8 19-8 17-5 25-6 2-3-2-1-47-1-28-4-6-2zm112 23-19 6-3 3 4 16 7 9 8 7h9l-1-9-1-6-1-26zm-39 12-23 11-17 11-9 7-10 9-7 8-8 13-7 15-1 4v41l6 12 2 2 29 4h23l22-5 12-6 10-8 9-11 6-12 5-16 1-18 2-5v-9l-8-5-10-3-8-5-5-6-6-12-1-3-1-12-1-1z" fill="#A45A42"/>
</svg>
